<mxfile host="app.diagrams.net" modified="2023-05-30T01:05:36.945Z" agent="Mozilla/5.0 (Windows NT 10.0; Win64; x64) AppleWebKit/537.36 (KHTML, like Gecko) Chrome/113.0.0.0 Safari/537.36 Edg/113.0.1774.57" etag="BcAAIdlUb8-4yUwjYZIO" version="21.3.5" type="device">
  <diagram name="Trang-1" id="HzHjKrkz3LmQbBuQjo5N">
    <mxGraphModel dx="2071" dy="1753" grid="1" gridSize="10" guides="1" tooltips="1" connect="1" arrows="1" fold="1" page="1" pageScale="1" pageWidth="850" pageHeight="1100" math="0" shadow="0">
      <root>
        <mxCell id="0" />
        <mxCell id="1" parent="0" />
        <mxCell id="pn9uoVroOdkDR-FOo1zA-213" style="edgeStyle=none;shape=connector;rounded=0;orthogonalLoop=1;jettySize=auto;html=1;exitX=0;exitY=0;exitDx=0;exitDy=0;entryX=0.5;entryY=1;entryDx=0;entryDy=0;labelBackgroundColor=default;strokeColor=default;fontFamily=Helvetica;fontSize=11;fontColor=#000000;endArrow=classic;" parent="1" source="ZGwo3JjX4PuIPy2itPVY-2" target="pn9uoVroOdkDR-FOo1zA-172" edge="1">
          <mxGeometry relative="1" as="geometry" />
        </mxCell>
        <mxCell id="pn9uoVroOdkDR-FOo1zA-214" style="edgeStyle=none;shape=connector;rounded=0;orthogonalLoop=1;jettySize=auto;html=1;exitX=0;exitY=0;exitDx=0;exitDy=0;entryX=1;entryY=1;entryDx=0;entryDy=0;labelBackgroundColor=default;strokeColor=default;fontFamily=Helvetica;fontSize=11;fontColor=#000000;endArrow=classic;" parent="1" source="ZGwo3JjX4PuIPy2itPVY-2" target="pn9uoVroOdkDR-FOo1zA-211" edge="1">
          <mxGeometry relative="1" as="geometry" />
        </mxCell>
        <mxCell id="pn9uoVroOdkDR-FOo1zA-215" style="edgeStyle=none;shape=connector;rounded=0;orthogonalLoop=1;jettySize=auto;html=1;exitX=0;exitY=0;exitDx=0;exitDy=0;entryX=1;entryY=0.5;entryDx=0;entryDy=0;labelBackgroundColor=default;strokeColor=default;fontFamily=Helvetica;fontSize=11;fontColor=#000000;endArrow=classic;" parent="1" source="ZGwo3JjX4PuIPy2itPVY-2" target="pn9uoVroOdkDR-FOo1zA-210" edge="1">
          <mxGeometry relative="1" as="geometry" />
        </mxCell>
        <mxCell id="pn9uoVroOdkDR-FOo1zA-216" style="edgeStyle=none;shape=connector;rounded=0;orthogonalLoop=1;jettySize=auto;html=1;exitX=0;exitY=0;exitDx=0;exitDy=0;entryX=1;entryY=0.5;entryDx=0;entryDy=0;labelBackgroundColor=default;strokeColor=default;fontFamily=Helvetica;fontSize=11;fontColor=#000000;endArrow=classic;" parent="1" source="ZGwo3JjX4PuIPy2itPVY-2" target="pn9uoVroOdkDR-FOo1zA-209" edge="1">
          <mxGeometry relative="1" as="geometry" />
        </mxCell>
        <mxCell id="pn9uoVroOdkDR-FOo1zA-217" style="edgeStyle=none;shape=connector;rounded=0;orthogonalLoop=1;jettySize=auto;html=1;exitX=0;exitY=0;exitDx=0;exitDy=0;entryX=1;entryY=0;entryDx=0;entryDy=0;labelBackgroundColor=default;strokeColor=default;fontFamily=Helvetica;fontSize=11;fontColor=#000000;endArrow=classic;" parent="1" source="ZGwo3JjX4PuIPy2itPVY-2" target="pn9uoVroOdkDR-FOo1zA-212" edge="1">
          <mxGeometry relative="1" as="geometry" />
        </mxCell>
        <mxCell id="Y8wADBtAHxZ81B8i85IY-24" style="rounded=0;orthogonalLoop=1;jettySize=auto;html=1;exitX=0;exitY=0;exitDx=0;exitDy=0;entryX=1.011;entryY=0.257;entryDx=0;entryDy=0;entryPerimeter=0;fontColor=#000000;" parent="1" source="ZGwo3JjX4PuIPy2itPVY-2" target="Y8wADBtAHxZ81B8i85IY-22" edge="1">
          <mxGeometry relative="1" as="geometry" />
        </mxCell>
        <mxCell id="Y8wADBtAHxZ81B8i85IY-25" style="rounded=0;orthogonalLoop=1;jettySize=auto;html=1;exitX=0;exitY=0;exitDx=0;exitDy=0;entryX=1;entryY=0;entryDx=0;entryDy=0;fontColor=#000000;" parent="1" source="ZGwo3JjX4PuIPy2itPVY-2" target="Y8wADBtAHxZ81B8i85IY-23" edge="1">
          <mxGeometry relative="1" as="geometry" />
        </mxCell>
        <mxCell id="ZGwo3JjX4PuIPy2itPVY-2" value="Học Viên" style="rounded=0;whiteSpace=wrap;html=1;fillColor=#ffe6cc;strokeColor=#d79b00;fontColor=#000000;" parent="1" vertex="1">
          <mxGeometry x="-250" y="-160" width="120" height="60" as="geometry" />
        </mxCell>
        <mxCell id="pn9uoVroOdkDR-FOo1zA-204" style="edgeStyle=none;shape=connector;rounded=0;orthogonalLoop=1;jettySize=auto;html=1;entryX=1;entryY=1;entryDx=0;entryDy=0;labelBackgroundColor=default;strokeColor=default;fontFamily=Helvetica;fontSize=11;fontColor=#000000;endArrow=classic;exitX=0;exitY=0.25;exitDx=0;exitDy=0;" parent="1" source="ZGwo3JjX4PuIPy2itPVY-4" target="pn9uoVroOdkDR-FOo1zA-200" edge="1">
          <mxGeometry relative="1" as="geometry">
            <mxPoint x="-250" y="470" as="sourcePoint" />
          </mxGeometry>
        </mxCell>
        <mxCell id="pn9uoVroOdkDR-FOo1zA-205" style="edgeStyle=none;shape=connector;rounded=0;orthogonalLoop=1;jettySize=auto;html=1;exitX=0;exitY=0.5;exitDx=0;exitDy=0;entryX=1;entryY=0.5;entryDx=0;entryDy=0;labelBackgroundColor=default;strokeColor=default;fontFamily=Helvetica;fontSize=11;fontColor=#000000;endArrow=classic;" parent="1" source="ZGwo3JjX4PuIPy2itPVY-4" target="pn9uoVroOdkDR-FOo1zA-170" edge="1">
          <mxGeometry relative="1" as="geometry" />
        </mxCell>
        <mxCell id="ZGwo3JjX4PuIPy2itPVY-4" value="Đại đội" style="rounded=0;whiteSpace=wrap;html=1;fillColor=#ffe6cc;strokeColor=#d79b00;fontColor=#000000;" parent="1" vertex="1">
          <mxGeometry x="-250" y="470" width="120" height="60" as="geometry" />
        </mxCell>
        <mxCell id="pn9uoVroOdkDR-FOo1zA-206" style="edgeStyle=none;shape=connector;rounded=0;orthogonalLoop=1;jettySize=auto;html=1;exitX=0;exitY=0.25;exitDx=0;exitDy=0;entryX=1;entryY=1;entryDx=0;entryDy=0;labelBackgroundColor=default;strokeColor=default;fontFamily=Helvetica;fontSize=11;fontColor=#000000;endArrow=classic;" parent="1" source="ZGwo3JjX4PuIPy2itPVY-5" target="pn9uoVroOdkDR-FOo1zA-171" edge="1">
          <mxGeometry relative="1" as="geometry" />
        </mxCell>
        <mxCell id="pn9uoVroOdkDR-FOo1zA-208" style="edgeStyle=none;shape=connector;rounded=0;orthogonalLoop=1;jettySize=auto;html=1;exitX=0;exitY=0.5;exitDx=0;exitDy=0;entryX=1;entryY=0.5;entryDx=0;entryDy=0;labelBackgroundColor=default;strokeColor=default;fontFamily=Helvetica;fontSize=11;fontColor=#000000;endArrow=classic;" parent="1" source="ZGwo3JjX4PuIPy2itPVY-5" target="pn9uoVroOdkDR-FOo1zA-207" edge="1">
          <mxGeometry relative="1" as="geometry" />
        </mxCell>
        <mxCell id="ZGwo3JjX4PuIPy2itPVY-5" value="Lớp chuyên Ngành" style="rounded=0;whiteSpace=wrap;html=1;fillColor=#ffe6cc;strokeColor=#d79b00;fontColor=#000000;" parent="1" vertex="1">
          <mxGeometry x="-250" y="195" width="120" height="60" as="geometry" />
        </mxCell>
        <mxCell id="pn9uoVroOdkDR-FOo1zA-148" style="edgeStyle=none;shape=connector;rounded=0;orthogonalLoop=1;jettySize=auto;html=1;entryX=1;entryY=0;entryDx=0;entryDy=0;labelBackgroundColor=default;strokeColor=default;fontFamily=Helvetica;fontSize=11;fontColor=#000000;endArrow=classic;exitX=1;exitY=0.5;exitDx=0;exitDy=0;" parent="1" source="ZGwo3JjX4PuIPy2itPVY-6" target="pn9uoVroOdkDR-FOo1zA-147" edge="1">
          <mxGeometry relative="1" as="geometry">
            <mxPoint x="1020" y="230" as="sourcePoint" />
          </mxGeometry>
        </mxCell>
        <mxCell id="pn9uoVroOdkDR-FOo1zA-149" style="edgeStyle=none;shape=connector;rounded=0;orthogonalLoop=1;jettySize=auto;html=1;exitX=1;exitY=0.5;exitDx=0;exitDy=0;entryX=1;entryY=0;entryDx=0;entryDy=0;labelBackgroundColor=default;strokeColor=default;fontFamily=Helvetica;fontSize=11;fontColor=#000000;endArrow=classic;" parent="1" source="ZGwo3JjX4PuIPy2itPVY-6" target="pn9uoVroOdkDR-FOo1zA-146" edge="1">
          <mxGeometry relative="1" as="geometry" />
        </mxCell>
        <mxCell id="pn9uoVroOdkDR-FOo1zA-151" style="edgeStyle=none;shape=connector;rounded=0;orthogonalLoop=1;jettySize=auto;html=1;exitX=1;exitY=0.5;exitDx=0;exitDy=0;entryX=0.5;entryY=0;entryDx=0;entryDy=0;labelBackgroundColor=default;strokeColor=default;fontFamily=Helvetica;fontSize=11;fontColor=#000000;endArrow=classic;" parent="1" source="ZGwo3JjX4PuIPy2itPVY-6" target="pn9uoVroOdkDR-FOo1zA-145" edge="1">
          <mxGeometry relative="1" as="geometry" />
        </mxCell>
        <mxCell id="pn9uoVroOdkDR-FOo1zA-152" style="edgeStyle=none;shape=connector;rounded=0;orthogonalLoop=1;jettySize=auto;html=1;exitX=1;exitY=0.5;exitDx=0;exitDy=0;entryX=0.5;entryY=0;entryDx=0;entryDy=0;labelBackgroundColor=default;strokeColor=default;fontFamily=Helvetica;fontSize=11;fontColor=#000000;endArrow=classic;" parent="1" source="ZGwo3JjX4PuIPy2itPVY-6" target="pn9uoVroOdkDR-FOo1zA-144" edge="1">
          <mxGeometry relative="1" as="geometry" />
        </mxCell>
        <mxCell id="pn9uoVroOdkDR-FOo1zA-153" style="edgeStyle=none;shape=connector;rounded=0;orthogonalLoop=1;jettySize=auto;html=1;exitX=1;exitY=0.5;exitDx=0;exitDy=0;entryX=0;entryY=0;entryDx=0;entryDy=0;labelBackgroundColor=default;strokeColor=default;fontFamily=Helvetica;fontSize=11;fontColor=#000000;endArrow=classic;" parent="1" source="ZGwo3JjX4PuIPy2itPVY-6" target="pn9uoVroOdkDR-FOo1zA-143" edge="1">
          <mxGeometry relative="1" as="geometry" />
        </mxCell>
        <mxCell id="ZGwo3JjX4PuIPy2itPVY-6" value="Nhân Thân" style="rounded=0;whiteSpace=wrap;html=1;fillColor=#ffe6cc;strokeColor=#d79b00;fontColor=#000000;" parent="1" vertex="1">
          <mxGeometry x="30" y="230" width="120" height="60" as="geometry" />
        </mxCell>
        <mxCell id="pn9uoVroOdkDR-FOo1zA-103" style="edgeStyle=none;shape=connector;rounded=0;orthogonalLoop=1;jettySize=auto;html=1;exitX=0.5;exitY=0;exitDx=0;exitDy=0;entryX=0;entryY=1;entryDx=0;entryDy=0;labelBackgroundColor=default;strokeColor=default;fontFamily=Helvetica;fontSize=11;fontColor=#000000;endArrow=classic;" parent="1" source="ZGwo3JjX4PuIPy2itPVY-9" target="pn9uoVroOdkDR-FOo1zA-99" edge="1">
          <mxGeometry relative="1" as="geometry" />
        </mxCell>
        <mxCell id="pn9uoVroOdkDR-FOo1zA-104" style="edgeStyle=none;shape=connector;rounded=0;orthogonalLoop=1;jettySize=auto;html=1;exitX=0.5;exitY=0;exitDx=0;exitDy=0;labelBackgroundColor=default;strokeColor=default;fontFamily=Helvetica;fontSize=11;fontColor=#000000;endArrow=classic;" parent="1" source="ZGwo3JjX4PuIPy2itPVY-9" target="pn9uoVroOdkDR-FOo1zA-101" edge="1">
          <mxGeometry relative="1" as="geometry" />
        </mxCell>
        <mxCell id="pn9uoVroOdkDR-FOo1zA-105" style="edgeStyle=none;shape=connector;rounded=0;orthogonalLoop=1;jettySize=auto;html=1;exitX=0.5;exitY=0;exitDx=0;exitDy=0;entryX=0.048;entryY=0.745;entryDx=0;entryDy=0;labelBackgroundColor=default;strokeColor=default;fontFamily=Helvetica;fontSize=11;fontColor=#000000;endArrow=classic;entryPerimeter=0;" parent="1" source="ZGwo3JjX4PuIPy2itPVY-9" target="pn9uoVroOdkDR-FOo1zA-100" edge="1">
          <mxGeometry relative="1" as="geometry" />
        </mxCell>
        <mxCell id="ZGwo3JjX4PuIPy2itPVY-9" value="Kiểm Tra Điều Lệnh" style="rounded=0;whiteSpace=wrap;html=1;fillColor=#ffe6cc;strokeColor=#d79b00;fontColor=#000000;" parent="1" vertex="1">
          <mxGeometry y="-550" width="120" height="60" as="geometry" />
        </mxCell>
        <mxCell id="pn9uoVroOdkDR-FOo1zA-109" style="edgeStyle=none;shape=connector;rounded=0;orthogonalLoop=1;jettySize=auto;html=1;exitX=1;exitY=0.5;exitDx=0;exitDy=0;entryX=0.5;entryY=1;entryDx=0;entryDy=0;labelBackgroundColor=default;strokeColor=default;fontFamily=Helvetica;fontSize=11;fontColor=#000000;endArrow=classic;" parent="1" source="ZGwo3JjX4PuIPy2itPVY-10" target="pn9uoVroOdkDR-FOo1zA-106" edge="1">
          <mxGeometry relative="1" as="geometry" />
        </mxCell>
        <mxCell id="pn9uoVroOdkDR-FOo1zA-110" style="edgeStyle=none;shape=connector;rounded=0;orthogonalLoop=1;jettySize=auto;html=1;exitX=1;exitY=0.5;exitDx=0;exitDy=0;entryX=0;entryY=1;entryDx=0;entryDy=0;labelBackgroundColor=default;strokeColor=default;fontFamily=Helvetica;fontSize=11;fontColor=#000000;endArrow=classic;" parent="1" source="ZGwo3JjX4PuIPy2itPVY-10" target="pn9uoVroOdkDR-FOo1zA-107" edge="1">
          <mxGeometry relative="1" as="geometry" />
        </mxCell>
        <mxCell id="pn9uoVroOdkDR-FOo1zA-111" style="edgeStyle=none;shape=connector;rounded=0;orthogonalLoop=1;jettySize=auto;html=1;exitX=1;exitY=0.5;exitDx=0;exitDy=0;entryX=0;entryY=1;entryDx=0;entryDy=0;labelBackgroundColor=default;strokeColor=default;fontFamily=Helvetica;fontSize=11;fontColor=#000000;endArrow=classic;" parent="1" source="ZGwo3JjX4PuIPy2itPVY-10" target="pn9uoVroOdkDR-FOo1zA-108" edge="1">
          <mxGeometry relative="1" as="geometry" />
        </mxCell>
        <mxCell id="ZGwo3JjX4PuIPy2itPVY-10" value="Kiểm Tra Thể Lực" style="rounded=0;whiteSpace=wrap;html=1;fillColor=#ffe6cc;strokeColor=#d79b00;fontColor=#000000;" parent="1" vertex="1">
          <mxGeometry x="190" y="-440" width="120" height="60" as="geometry" />
        </mxCell>
        <mxCell id="pn9uoVroOdkDR-FOo1zA-163" style="edgeStyle=none;shape=connector;rounded=0;orthogonalLoop=1;jettySize=auto;html=1;exitX=1;exitY=0.5;exitDx=0;exitDy=0;entryX=0;entryY=0.5;entryDx=0;entryDy=0;labelBackgroundColor=default;strokeColor=default;fontFamily=Helvetica;fontSize=11;fontColor=#000000;endArrow=classic;" parent="1" source="ZGwo3JjX4PuIPy2itPVY-11" target="pn9uoVroOdkDR-FOo1zA-160" edge="1">
          <mxGeometry relative="1" as="geometry" />
        </mxCell>
        <mxCell id="pn9uoVroOdkDR-FOo1zA-164" style="edgeStyle=none;shape=connector;rounded=0;orthogonalLoop=1;jettySize=auto;html=1;entryX=0;entryY=0.5;entryDx=0;entryDy=0;labelBackgroundColor=default;strokeColor=default;fontFamily=Helvetica;fontSize=11;fontColor=#000000;endArrow=classic;exitX=1;exitY=0.5;exitDx=0;exitDy=0;" parent="1" source="ZGwo3JjX4PuIPy2itPVY-11" target="pn9uoVroOdkDR-FOo1zA-161" edge="1">
          <mxGeometry relative="1" as="geometry">
            <mxPoint x="350" y="-10" as="sourcePoint" />
          </mxGeometry>
        </mxCell>
        <mxCell id="pn9uoVroOdkDR-FOo1zA-165" style="edgeStyle=none;shape=connector;rounded=0;orthogonalLoop=1;jettySize=auto;html=1;exitX=1;exitY=0.5;exitDx=0;exitDy=0;entryX=0.5;entryY=0;entryDx=0;entryDy=0;labelBackgroundColor=default;strokeColor=default;fontFamily=Helvetica;fontSize=11;fontColor=#000000;endArrow=classic;" parent="1" source="ZGwo3JjX4PuIPy2itPVY-11" target="pn9uoVroOdkDR-FOo1zA-162" edge="1">
          <mxGeometry relative="1" as="geometry" />
        </mxCell>
        <mxCell id="ZGwo3JjX4PuIPy2itPVY-11" value="Kiểm Tra Sức Khỏe" style="rounded=0;whiteSpace=wrap;html=1;fillColor=#ffe6cc;strokeColor=#d79b00;fontColor=#000000;" parent="1" vertex="1">
          <mxGeometry x="330" y="45" width="120" height="60" as="geometry" />
        </mxCell>
        <mxCell id="pn9uoVroOdkDR-FOo1zA-117" style="edgeStyle=none;shape=connector;rounded=0;orthogonalLoop=1;jettySize=auto;html=1;exitX=1;exitY=0.5;exitDx=0;exitDy=0;entryX=0;entryY=1;entryDx=0;entryDy=0;labelBackgroundColor=default;strokeColor=default;fontFamily=Helvetica;fontSize=11;fontColor=#000000;endArrow=classic;" parent="1" source="ZGwo3JjX4PuIPy2itPVY-12" target="pn9uoVroOdkDR-FOo1zA-112" edge="1">
          <mxGeometry relative="1" as="geometry" />
        </mxCell>
        <mxCell id="pn9uoVroOdkDR-FOo1zA-118" style="edgeStyle=none;shape=connector;rounded=0;orthogonalLoop=1;jettySize=auto;html=1;exitX=1;exitY=0.5;exitDx=0;exitDy=0;entryX=0.5;entryY=1;entryDx=0;entryDy=0;labelBackgroundColor=default;strokeColor=default;fontFamily=Helvetica;fontSize=11;fontColor=#000000;endArrow=classic;" parent="1" source="ZGwo3JjX4PuIPy2itPVY-12" target="pn9uoVroOdkDR-FOo1zA-113" edge="1">
          <mxGeometry relative="1" as="geometry" />
        </mxCell>
        <mxCell id="pn9uoVroOdkDR-FOo1zA-119" style="edgeStyle=none;shape=connector;rounded=0;orthogonalLoop=1;jettySize=auto;html=1;exitX=1;exitY=0.5;exitDx=0;exitDy=0;entryX=0.5;entryY=1;entryDx=0;entryDy=0;labelBackgroundColor=default;strokeColor=default;fontFamily=Helvetica;fontSize=11;fontColor=#000000;endArrow=classic;" parent="1" source="ZGwo3JjX4PuIPy2itPVY-12" target="pn9uoVroOdkDR-FOo1zA-116" edge="1">
          <mxGeometry relative="1" as="geometry" />
        </mxCell>
        <mxCell id="pn9uoVroOdkDR-FOo1zA-121" style="edgeStyle=none;shape=connector;rounded=0;orthogonalLoop=1;jettySize=auto;html=1;exitX=1;exitY=0.5;exitDx=0;exitDy=0;entryX=0;entryY=0.5;entryDx=0;entryDy=0;labelBackgroundColor=default;strokeColor=default;fontFamily=Helvetica;fontSize=11;fontColor=#000000;endArrow=classic;" parent="1" source="ZGwo3JjX4PuIPy2itPVY-12" target="pn9uoVroOdkDR-FOo1zA-120" edge="1">
          <mxGeometry relative="1" as="geometry" />
        </mxCell>
        <mxCell id="ZGwo3JjX4PuIPy2itPVY-12" value="Vắng mặt" style="rounded=0;whiteSpace=wrap;html=1;fillColor=#ffe6cc;strokeColor=#d79b00;fontColor=#000000;" parent="1" vertex="1">
          <mxGeometry x="335" y="-270" width="120" height="60" as="geometry" />
        </mxCell>
        <mxCell id="pn9uoVroOdkDR-FOo1zA-126" style="edgeStyle=none;shape=connector;rounded=0;orthogonalLoop=1;jettySize=auto;html=1;exitX=1;exitY=0.5;exitDx=0;exitDy=0;entryX=0.066;entryY=0.317;entryDx=0;entryDy=0;labelBackgroundColor=default;strokeColor=default;fontFamily=Helvetica;fontSize=11;fontColor=#000000;endArrow=classic;entryPerimeter=0;" parent="1" source="ZGwo3JjX4PuIPy2itPVY-13" target="pn9uoVroOdkDR-FOo1zA-122" edge="1">
          <mxGeometry relative="1" as="geometry" />
        </mxCell>
        <mxCell id="pn9uoVroOdkDR-FOo1zA-127" value="" style="edgeStyle=none;shape=connector;rounded=0;orthogonalLoop=1;jettySize=auto;html=1;labelBackgroundColor=default;strokeColor=default;fontFamily=Helvetica;fontSize=11;fontColor=#000000;endArrow=classic;exitX=1;exitY=0.5;exitDx=0;exitDy=0;" parent="1" source="ZGwo3JjX4PuIPy2itPVY-13" target="pn9uoVroOdkDR-FOo1zA-123" edge="1">
          <mxGeometry relative="1" as="geometry" />
        </mxCell>
        <mxCell id="pn9uoVroOdkDR-FOo1zA-128" style="edgeStyle=none;shape=connector;rounded=0;orthogonalLoop=1;jettySize=auto;html=1;exitX=1;exitY=0.5;exitDx=0;exitDy=0;entryX=0;entryY=0.5;entryDx=0;entryDy=0;labelBackgroundColor=default;strokeColor=default;fontFamily=Helvetica;fontSize=11;fontColor=#000000;endArrow=classic;" parent="1" source="ZGwo3JjX4PuIPy2itPVY-13" target="pn9uoVroOdkDR-FOo1zA-124" edge="1">
          <mxGeometry relative="1" as="geometry" />
        </mxCell>
        <mxCell id="pn9uoVroOdkDR-FOo1zA-129" style="edgeStyle=none;shape=connector;rounded=0;orthogonalLoop=1;jettySize=auto;html=1;exitX=1;exitY=0.5;exitDx=0;exitDy=0;entryX=0;entryY=0.5;entryDx=0;entryDy=0;labelBackgroundColor=default;strokeColor=default;fontFamily=Helvetica;fontSize=11;fontColor=#000000;endArrow=classic;" parent="1" source="ZGwo3JjX4PuIPy2itPVY-13" target="pn9uoVroOdkDR-FOo1zA-125" edge="1">
          <mxGeometry relative="1" as="geometry" />
        </mxCell>
        <mxCell id="pn9uoVroOdkDR-FOo1zA-132" style="edgeStyle=none;shape=connector;rounded=0;orthogonalLoop=1;jettySize=auto;html=1;exitX=1;exitY=0.5;exitDx=0;exitDy=0;entryX=0;entryY=0.5;entryDx=0;entryDy=0;labelBackgroundColor=default;strokeColor=default;fontFamily=Helvetica;fontSize=11;fontColor=#000000;endArrow=classic;" parent="1" source="ZGwo3JjX4PuIPy2itPVY-13" target="pn9uoVroOdkDR-FOo1zA-131" edge="1">
          <mxGeometry relative="1" as="geometry" />
        </mxCell>
        <mxCell id="ZGwo3JjX4PuIPy2itPVY-13" value="Bảo Hiểm Quân nhân" style="rounded=0;whiteSpace=wrap;html=1;fillColor=#ffe6cc;strokeColor=#d79b00;fontColor=#000000;" parent="1" vertex="1">
          <mxGeometry x="500" y="-40" width="120" height="60" as="geometry" />
        </mxCell>
        <mxCell id="pn9uoVroOdkDR-FOo1zA-138" style="edgeStyle=none;shape=connector;rounded=0;orthogonalLoop=1;jettySize=auto;html=1;exitX=1;exitY=0.5;exitDx=0;exitDy=0;entryX=0;entryY=0.5;entryDx=0;entryDy=0;labelBackgroundColor=default;strokeColor=default;fontFamily=Helvetica;fontSize=11;fontColor=#000000;endArrow=classic;" parent="1" source="ZGwo3JjX4PuIPy2itPVY-14" target="pn9uoVroOdkDR-FOo1zA-133" edge="1">
          <mxGeometry relative="1" as="geometry" />
        </mxCell>
        <mxCell id="pn9uoVroOdkDR-FOo1zA-139" style="edgeStyle=none;shape=connector;rounded=0;orthogonalLoop=1;jettySize=auto;html=1;exitX=1;exitY=0.5;exitDx=0;exitDy=0;entryX=0;entryY=0;entryDx=0;entryDy=0;labelBackgroundColor=default;strokeColor=default;fontFamily=Helvetica;fontSize=11;fontColor=#000000;endArrow=classic;" parent="1" source="ZGwo3JjX4PuIPy2itPVY-14" target="pn9uoVroOdkDR-FOo1zA-134" edge="1">
          <mxGeometry relative="1" as="geometry" />
        </mxCell>
        <mxCell id="pn9uoVroOdkDR-FOo1zA-140" style="edgeStyle=none;shape=connector;rounded=0;orthogonalLoop=1;jettySize=auto;html=1;exitX=1;exitY=0.5;exitDx=0;exitDy=0;entryX=0.5;entryY=0;entryDx=0;entryDy=0;labelBackgroundColor=default;strokeColor=default;fontFamily=Helvetica;fontSize=11;fontColor=#000000;endArrow=classic;" parent="1" source="ZGwo3JjX4PuIPy2itPVY-14" target="pn9uoVroOdkDR-FOo1zA-135" edge="1">
          <mxGeometry relative="1" as="geometry" />
        </mxCell>
        <mxCell id="pn9uoVroOdkDR-FOo1zA-141" style="edgeStyle=none;shape=connector;rounded=0;orthogonalLoop=1;jettySize=auto;html=1;exitX=1;exitY=0.5;exitDx=0;exitDy=0;entryX=0;entryY=0.5;entryDx=0;entryDy=0;labelBackgroundColor=default;strokeColor=default;fontFamily=Helvetica;fontSize=11;fontColor=#000000;endArrow=classic;" parent="1" source="ZGwo3JjX4PuIPy2itPVY-14" target="pn9uoVroOdkDR-FOo1zA-136" edge="1">
          <mxGeometry relative="1" as="geometry" />
        </mxCell>
        <mxCell id="pn9uoVroOdkDR-FOo1zA-142" style="edgeStyle=none;shape=connector;rounded=0;orthogonalLoop=1;jettySize=auto;html=1;exitX=1;exitY=0.5;exitDx=0;exitDy=0;entryX=0;entryY=0.5;entryDx=0;entryDy=0;labelBackgroundColor=default;strokeColor=default;fontFamily=Helvetica;fontSize=11;fontColor=#000000;endArrow=classic;" parent="1" source="ZGwo3JjX4PuIPy2itPVY-14" target="pn9uoVroOdkDR-FOo1zA-137" edge="1">
          <mxGeometry relative="1" as="geometry" />
        </mxCell>
        <mxCell id="ZGwo3JjX4PuIPy2itPVY-14" value="Bảo Hiểm Nhân thân" style="rounded=0;whiteSpace=wrap;html=1;fillColor=#ffe6cc;strokeColor=#d79b00;fontColor=#000000;" parent="1" vertex="1">
          <mxGeometry x="160" y="565" width="120" height="60" as="geometry" />
        </mxCell>
        <mxCell id="ZGwo3JjX4PuIPy2itPVY-24" value="Có" style="rhombus;whiteSpace=wrap;html=1;fillColor=#dae8fc;strokeColor=#6c8ebf;fontColor=#000000;" parent="1" vertex="1">
          <mxGeometry x="-230" y="320" width="80" height="80" as="geometry" />
        </mxCell>
        <mxCell id="ZGwo3JjX4PuIPy2itPVY-25" value="" style="endArrow=none;html=1;rounded=0;entryX=0.5;entryY=1;entryDx=0;entryDy=0;exitX=0.5;exitY=0;exitDx=0;exitDy=0;fontColor=#000000;" parent="1" source="ZGwo3JjX4PuIPy2itPVY-24" target="ZGwo3JjX4PuIPy2itPVY-5" edge="1">
          <mxGeometry width="50" height="50" relative="1" as="geometry">
            <mxPoint x="530" y="175" as="sourcePoint" />
            <mxPoint x="260" y="225" as="targetPoint" />
          </mxGeometry>
        </mxCell>
        <mxCell id="ZGwo3JjX4PuIPy2itPVY-27" value="(1,n)" style="text;html=1;strokeColor=none;fillColor=none;align=center;verticalAlign=middle;whiteSpace=wrap;rounded=0;fontStyle=1;fontSize=14;fontColor=#000000;" parent="1" vertex="1">
          <mxGeometry x="-250" y="280" width="60" height="30" as="geometry" />
        </mxCell>
        <mxCell id="ZGwo3JjX4PuIPy2itPVY-29" value="" style="endArrow=none;html=1;rounded=0;entryX=0.5;entryY=1;entryDx=0;entryDy=0;exitX=0.5;exitY=0;exitDx=0;exitDy=0;fontColor=#000000;" parent="1" source="ZGwo3JjX4PuIPy2itPVY-4" target="ZGwo3JjX4PuIPy2itPVY-24" edge="1">
          <mxGeometry width="50" height="50" relative="1" as="geometry">
            <mxPoint x="150" y="240" as="sourcePoint" />
            <mxPoint x="160" y="210" as="targetPoint" />
          </mxGeometry>
        </mxCell>
        <mxCell id="ZGwo3JjX4PuIPy2itPVY-30" value="Có" style="rhombus;whiteSpace=wrap;html=1;fillColor=#dae8fc;strokeColor=#6c8ebf;fontColor=#000000;" parent="1" vertex="1">
          <mxGeometry x="-230" y="25" width="80" height="80" as="geometry" />
        </mxCell>
        <mxCell id="ZGwo3JjX4PuIPy2itPVY-31" value="(1,1)" style="text;html=1;strokeColor=none;fillColor=none;align=center;verticalAlign=middle;whiteSpace=wrap;rounded=0;glass=0;fontStyle=1;fontSize=14;fontColor=#000000;" parent="1" vertex="1">
          <mxGeometry x="30" y="-170" width="60" height="30" as="geometry" />
        </mxCell>
        <mxCell id="ZGwo3JjX4PuIPy2itPVY-32" value="" style="endArrow=none;html=1;rounded=0;entryX=0.5;entryY=0;entryDx=0;entryDy=0;exitX=0.5;exitY=1;exitDx=0;exitDy=0;fontColor=#000000;" parent="1" source="ZGwo3JjX4PuIPy2itPVY-30" target="ZGwo3JjX4PuIPy2itPVY-5" edge="1">
          <mxGeometry width="50" height="50" relative="1" as="geometry">
            <mxPoint x="150" y="350" as="sourcePoint" />
            <mxPoint x="150" y="320" as="targetPoint" />
          </mxGeometry>
        </mxCell>
        <mxCell id="ZGwo3JjX4PuIPy2itPVY-33" value="" style="endArrow=none;html=1;rounded=0;entryX=0.5;entryY=0;entryDx=0;entryDy=0;exitX=0.5;exitY=1;exitDx=0;exitDy=0;fontColor=#000000;" parent="1" source="ZGwo3JjX4PuIPy2itPVY-2" target="ZGwo3JjX4PuIPy2itPVY-30" edge="1">
          <mxGeometry width="50" height="50" relative="1" as="geometry">
            <mxPoint x="240" y="180" as="sourcePoint" />
            <mxPoint x="210" y="180" as="targetPoint" />
          </mxGeometry>
        </mxCell>
        <mxCell id="ZGwo3JjX4PuIPy2itPVY-35" value="(0,n)" style="text;html=1;strokeColor=none;fillColor=none;align=center;verticalAlign=middle;whiteSpace=wrap;rounded=0;glass=0;fontStyle=1;fontSize=14;fontColor=#000000;" parent="1" vertex="1">
          <mxGeometry x="170" y="90" width="60" height="30" as="geometry" />
        </mxCell>
        <mxCell id="ZGwo3JjX4PuIPy2itPVY-36" value="(1,1)" style="text;html=1;strokeColor=none;fillColor=none;align=center;verticalAlign=middle;whiteSpace=wrap;rounded=0;glass=0;fontStyle=1;fontSize=14;fontColor=#000000;" parent="1" vertex="1">
          <mxGeometry x="-250" y="100" width="60" height="30" as="geometry" />
        </mxCell>
        <mxCell id="ZGwo3JjX4PuIPy2itPVY-37" value="Có" style="rhombus;whiteSpace=wrap;html=1;fillColor=#dae8fc;strokeColor=#6c8ebf;fontColor=#000000;" parent="1" vertex="1">
          <mxGeometry x="-30" y="60" width="80" height="80" as="geometry" />
        </mxCell>
        <mxCell id="ZGwo3JjX4PuIPy2itPVY-38" value="" style="endArrow=none;html=1;rounded=0;entryX=0.5;entryY=1;entryDx=0;entryDy=0;exitX=0;exitY=0;exitDx=0;exitDy=0;fontColor=#000000;" parent="1" source="ZGwo3JjX4PuIPy2itPVY-37" target="ZGwo3JjX4PuIPy2itPVY-2" edge="1">
          <mxGeometry width="50" height="50" relative="1" as="geometry">
            <mxPoint x="240" y="180" as="sourcePoint" />
            <mxPoint x="210" y="180" as="targetPoint" />
          </mxGeometry>
        </mxCell>
        <mxCell id="ZGwo3JjX4PuIPy2itPVY-39" value="" style="endArrow=none;html=1;rounded=0;entryX=1;entryY=1;entryDx=0;entryDy=0;exitX=0.5;exitY=0;exitDx=0;exitDy=0;fontColor=#000000;" parent="1" source="ZGwo3JjX4PuIPy2itPVY-6" target="ZGwo3JjX4PuIPy2itPVY-37" edge="1">
          <mxGeometry width="50" height="50" relative="1" as="geometry">
            <mxPoint x="250" y="190" as="sourcePoint" />
            <mxPoint x="220" y="190" as="targetPoint" />
          </mxGeometry>
        </mxCell>
        <mxCell id="ZGwo3JjX4PuIPy2itPVY-40" value="(0,n)" style="text;html=1;strokeColor=none;fillColor=none;align=center;verticalAlign=middle;whiteSpace=wrap;rounded=0;glass=0;fontStyle=1;fontSize=14;fontColor=#000000;" parent="1" vertex="1">
          <mxGeometry x="150" y="-285" width="60" height="30" as="geometry" />
        </mxCell>
        <mxCell id="pn9uoVroOdkDR-FOo1zA-95" style="edgeStyle=none;shape=connector;rounded=0;orthogonalLoop=1;jettySize=auto;html=1;exitX=0.5;exitY=0;exitDx=0;exitDy=0;labelBackgroundColor=default;strokeColor=default;fontFamily=Helvetica;fontSize=11;fontColor=#000000;endArrow=classic;" parent="1" source="ZGwo3JjX4PuIPy2itPVY-43" target="pn9uoVroOdkDR-FOo1zA-92" edge="1">
          <mxGeometry relative="1" as="geometry" />
        </mxCell>
        <mxCell id="pn9uoVroOdkDR-FOo1zA-96" style="edgeStyle=none;shape=connector;rounded=0;orthogonalLoop=1;jettySize=auto;html=1;exitX=0.5;exitY=0;exitDx=0;exitDy=0;entryX=0.5;entryY=1;entryDx=0;entryDy=0;labelBackgroundColor=default;strokeColor=default;fontFamily=Helvetica;fontSize=11;fontColor=#000000;endArrow=classic;" parent="1" source="ZGwo3JjX4PuIPy2itPVY-43" target="pn9uoVroOdkDR-FOo1zA-91" edge="1">
          <mxGeometry relative="1" as="geometry" />
        </mxCell>
        <mxCell id="pn9uoVroOdkDR-FOo1zA-97" style="edgeStyle=none;shape=connector;rounded=0;orthogonalLoop=1;jettySize=auto;html=1;exitX=0.5;exitY=0;exitDx=0;exitDy=0;entryX=1;entryY=0.5;entryDx=0;entryDy=0;labelBackgroundColor=default;strokeColor=default;fontFamily=Helvetica;fontSize=11;fontColor=#000000;endArrow=classic;" parent="1" source="ZGwo3JjX4PuIPy2itPVY-43" target="pn9uoVroOdkDR-FOo1zA-93" edge="1">
          <mxGeometry relative="1" as="geometry" />
        </mxCell>
        <mxCell id="pn9uoVroOdkDR-FOo1zA-98" style="edgeStyle=none;shape=connector;rounded=0;orthogonalLoop=1;jettySize=auto;html=1;exitX=0.5;exitY=0;exitDx=0;exitDy=0;entryX=0.5;entryY=1;entryDx=0;entryDy=0;labelBackgroundColor=default;strokeColor=default;fontFamily=Helvetica;fontSize=11;fontColor=#000000;endArrow=classic;" parent="1" source="ZGwo3JjX4PuIPy2itPVY-43" target="pn9uoVroOdkDR-FOo1zA-94" edge="1">
          <mxGeometry relative="1" as="geometry" />
        </mxCell>
        <mxCell id="ZGwo3JjX4PuIPy2itPVY-43" value="Bảng Điểm" style="rounded=0;whiteSpace=wrap;html=1;fillColor=#ffe6cc;strokeColor=#d79b00;fontColor=#000000;" parent="1" vertex="1">
          <mxGeometry x="-230" y="-590" width="120" height="60" as="geometry" />
        </mxCell>
        <mxCell id="pn9uoVroOdkDR-FOo1zA-181" style="edgeStyle=none;shape=connector;rounded=0;orthogonalLoop=1;jettySize=auto;html=1;exitX=0.75;exitY=1;exitDx=0;exitDy=0;entryX=0;entryY=0;entryDx=0;entryDy=0;labelBackgroundColor=default;strokeColor=default;fontFamily=Helvetica;fontSize=11;fontColor=#000000;endArrow=classic;" parent="1" source="ZGwo3JjX4PuIPy2itPVY-45" target="pn9uoVroOdkDR-FOo1zA-167" edge="1">
          <mxGeometry relative="1" as="geometry" />
        </mxCell>
        <mxCell id="pn9uoVroOdkDR-FOo1zA-187" style="edgeStyle=none;shape=connector;rounded=0;orthogonalLoop=1;jettySize=auto;html=1;exitX=0.75;exitY=1;exitDx=0;exitDy=0;entryX=1;entryY=0;entryDx=0;entryDy=0;labelBackgroundColor=default;strokeColor=default;fontFamily=Helvetica;fontSize=11;fontColor=#000000;endArrow=classic;" parent="1" source="ZGwo3JjX4PuIPy2itPVY-45" target="pn9uoVroOdkDR-FOo1zA-183" edge="1">
          <mxGeometry relative="1" as="geometry" />
        </mxCell>
        <mxCell id="pn9uoVroOdkDR-FOo1zA-188" style="edgeStyle=none;shape=connector;rounded=0;orthogonalLoop=1;jettySize=auto;html=1;exitX=0.75;exitY=1;exitDx=0;exitDy=0;entryX=0.5;entryY=0;entryDx=0;entryDy=0;labelBackgroundColor=default;strokeColor=default;fontFamily=Helvetica;fontSize=11;fontColor=#000000;endArrow=classic;" parent="1" source="ZGwo3JjX4PuIPy2itPVY-45" target="pn9uoVroOdkDR-FOo1zA-182" edge="1">
          <mxGeometry relative="1" as="geometry" />
        </mxCell>
        <mxCell id="pn9uoVroOdkDR-FOo1zA-189" style="edgeStyle=none;shape=connector;rounded=0;orthogonalLoop=1;jettySize=auto;html=1;exitX=0.75;exitY=1;exitDx=0;exitDy=0;entryX=0.5;entryY=0;entryDx=0;entryDy=0;labelBackgroundColor=default;strokeColor=default;fontFamily=Helvetica;fontSize=11;fontColor=#000000;endArrow=classic;" parent="1" source="ZGwo3JjX4PuIPy2itPVY-45" target="pn9uoVroOdkDR-FOo1zA-184" edge="1">
          <mxGeometry relative="1" as="geometry" />
        </mxCell>
        <mxCell id="ZGwo3JjX4PuIPy2itPVY-45" value="Hồ Sơ Kỷ luật" style="rounded=0;whiteSpace=wrap;html=1;fillColor=#ffe6cc;strokeColor=#d79b00;fontColor=#000000;" parent="1" vertex="1">
          <mxGeometry x="310" y="230" width="120" height="60" as="geometry" />
        </mxCell>
        <mxCell id="pn9uoVroOdkDR-FOo1zA-190" style="edgeStyle=none;shape=connector;rounded=0;orthogonalLoop=1;jettySize=auto;html=1;exitX=0.5;exitY=1;exitDx=0;exitDy=0;labelBackgroundColor=default;strokeColor=default;fontFamily=Helvetica;fontSize=11;fontColor=#000000;endArrow=classic;" parent="1" source="ZGwo3JjX4PuIPy2itPVY-46" target="pn9uoVroOdkDR-FOo1zA-168" edge="1">
          <mxGeometry relative="1" as="geometry" />
        </mxCell>
        <mxCell id="pn9uoVroOdkDR-FOo1zA-194" style="edgeStyle=none;shape=connector;rounded=0;orthogonalLoop=1;jettySize=auto;html=1;exitX=0.5;exitY=1;exitDx=0;exitDy=0;labelBackgroundColor=default;strokeColor=default;fontFamily=Helvetica;fontSize=11;fontColor=#000000;endArrow=classic;entryX=1;entryY=0.5;entryDx=0;entryDy=0;" parent="1" source="ZGwo3JjX4PuIPy2itPVY-46" target="pn9uoVroOdkDR-FOo1zA-193" edge="1">
          <mxGeometry relative="1" as="geometry">
            <mxPoint x="170" y="800" as="targetPoint" />
          </mxGeometry>
        </mxCell>
        <mxCell id="pn9uoVroOdkDR-FOo1zA-195" style="edgeStyle=none;shape=connector;rounded=0;orthogonalLoop=1;jettySize=auto;html=1;exitX=0.5;exitY=1;exitDx=0;exitDy=0;entryX=0.5;entryY=0;entryDx=0;entryDy=0;labelBackgroundColor=default;strokeColor=default;fontFamily=Helvetica;fontSize=11;fontColor=#000000;endArrow=classic;" parent="1" source="ZGwo3JjX4PuIPy2itPVY-46" target="pn9uoVroOdkDR-FOo1zA-192" edge="1">
          <mxGeometry relative="1" as="geometry" />
        </mxCell>
        <mxCell id="pn9uoVroOdkDR-FOo1zA-196" style="edgeStyle=none;shape=connector;rounded=0;orthogonalLoop=1;jettySize=auto;html=1;exitX=0.5;exitY=1;exitDx=0;exitDy=0;entryX=0.5;entryY=0;entryDx=0;entryDy=0;labelBackgroundColor=default;strokeColor=default;fontFamily=Helvetica;fontSize=11;fontColor=#000000;endArrow=classic;" parent="1" source="ZGwo3JjX4PuIPy2itPVY-46" target="pn9uoVroOdkDR-FOo1zA-191" edge="1">
          <mxGeometry relative="1" as="geometry" />
        </mxCell>
        <mxCell id="ZGwo3JjX4PuIPy2itPVY-46" value="Khen Thưởng" style="rounded=0;whiteSpace=wrap;html=1;fillColor=#ffe6cc;strokeColor=#d79b00;fontColor=#000000;" parent="1" vertex="1">
          <mxGeometry x="-70" y="465" width="120" height="60" as="geometry" />
        </mxCell>
        <mxCell id="ZGwo3JjX4PuIPy2itPVY-48" value="(1,n)" style="text;html=1;strokeColor=none;fillColor=none;align=center;verticalAlign=middle;whiteSpace=wrap;rounded=0;glass=0;fontStyle=1;fontSize=14;fontColor=#000000;" parent="1" vertex="1">
          <mxGeometry x="20" y="-390" width="60" height="30" as="geometry" />
        </mxCell>
        <mxCell id="ZGwo3JjX4PuIPy2itPVY-49" value="Có" style="rhombus;whiteSpace=wrap;html=1;fillColor=#dae8fc;strokeColor=#6c8ebf;fontColor=#000000;" parent="1" vertex="1">
          <mxGeometry x="-230" y="-420" width="80" height="80" as="geometry" />
        </mxCell>
        <mxCell id="ZGwo3JjX4PuIPy2itPVY-50" value="" style="endArrow=none;html=1;rounded=0;entryX=0.5;entryY=1;entryDx=0;entryDy=0;exitX=0.5;exitY=0;exitDx=0;exitDy=0;fontColor=#000000;" parent="1" source="ZGwo3JjX4PuIPy2itPVY-2" target="ZGwo3JjX4PuIPy2itPVY-49" edge="1">
          <mxGeometry width="50" height="50" relative="1" as="geometry">
            <mxPoint x="350" y="180" as="sourcePoint" />
            <mxPoint x="320" y="180" as="targetPoint" />
          </mxGeometry>
        </mxCell>
        <mxCell id="ZGwo3JjX4PuIPy2itPVY-51" value="" style="endArrow=none;html=1;rounded=0;entryX=0.5;entryY=1;entryDx=0;entryDy=0;exitX=0.5;exitY=0;exitDx=0;exitDy=0;fontColor=#000000;" parent="1" source="ZGwo3JjX4PuIPy2itPVY-49" target="ZGwo3JjX4PuIPy2itPVY-43" edge="1">
          <mxGeometry width="50" height="50" relative="1" as="geometry">
            <mxPoint x="430" y="20" as="sourcePoint" />
            <mxPoint x="440" y="110" as="targetPoint" />
          </mxGeometry>
        </mxCell>
        <mxCell id="ZGwo3JjX4PuIPy2itPVY-52" value="Có" style="rhombus;whiteSpace=wrap;html=1;fillColor=#dae8fc;strokeColor=#6c8ebf;fontColor=#000000;" parent="1" vertex="1">
          <mxGeometry x="70" y="-170" width="80" height="80" as="geometry" />
        </mxCell>
        <mxCell id="ZGwo3JjX4PuIPy2itPVY-54" value="(1,1)" style="text;html=1;strokeColor=none;fillColor=none;align=center;verticalAlign=middle;whiteSpace=wrap;rounded=0;glass=0;fontStyle=1;fontSize=14;fontColor=#000000;" parent="1" vertex="1">
          <mxGeometry x="30" y="-70" width="60" height="30" as="geometry" />
        </mxCell>
        <mxCell id="ZGwo3JjX4PuIPy2itPVY-59" value="Có" style="rhombus;whiteSpace=wrap;html=1;fillColor=#dae8fc;strokeColor=#6c8ebf;fontColor=#000000;" parent="1" vertex="1">
          <mxGeometry x="80" y="385" width="80" height="80" as="geometry" />
        </mxCell>
        <mxCell id="ZGwo3JjX4PuIPy2itPVY-60" value="" style="endArrow=none;html=1;rounded=0;exitX=0.5;exitY=0;exitDx=0;exitDy=0;entryX=0.5;entryY=1;entryDx=0;entryDy=0;fontColor=#000000;" parent="1" source="ZGwo3JjX4PuIPy2itPVY-59" target="ZGwo3JjX4PuIPy2itPVY-6" edge="1">
          <mxGeometry width="50" height="50" relative="1" as="geometry">
            <mxPoint x="670" y="15" as="sourcePoint" />
            <mxPoint x="190" y="240" as="targetPoint" />
          </mxGeometry>
        </mxCell>
        <mxCell id="ZGwo3JjX4PuIPy2itPVY-61" value="" style="endArrow=none;html=1;rounded=0;exitX=0.5;exitY=0;exitDx=0;exitDy=0;entryX=1;entryY=1;entryDx=0;entryDy=0;fontColor=#000000;" parent="1" source="ZGwo3JjX4PuIPy2itPVY-14" target="ZGwo3JjX4PuIPy2itPVY-59" edge="1">
          <mxGeometry width="50" height="50" relative="1" as="geometry">
            <mxPoint x="670" y="15" as="sourcePoint" />
            <mxPoint x="850" y="140" as="targetPoint" />
          </mxGeometry>
        </mxCell>
        <mxCell id="ZGwo3JjX4PuIPy2itPVY-71" value="Có" style="rhombus;whiteSpace=wrap;html=1;fillColor=#dae8fc;strokeColor=#6c8ebf;fontColor=#000000;" parent="1" vertex="1">
          <mxGeometry x="120" y="35" width="80" height="80" as="geometry" />
        </mxCell>
        <mxCell id="pn9uoVroOdkDR-FOo1zA-1" value="" style="endArrow=none;html=1;rounded=0;exitX=0;exitY=0;exitDx=0;exitDy=0;entryX=1;entryY=0.5;entryDx=0;entryDy=0;fontColor=#000000;" parent="1" source="ZGwo3JjX4PuIPy2itPVY-71" target="ZGwo3JjX4PuIPy2itPVY-2" edge="1">
          <mxGeometry width="50" height="50" relative="1" as="geometry">
            <mxPoint x="550" y="320" as="sourcePoint" />
            <mxPoint x="-130" y="-130" as="targetPoint" />
          </mxGeometry>
        </mxCell>
        <mxCell id="pn9uoVroOdkDR-FOo1zA-2" value="" style="endArrow=none;html=1;rounded=0;exitX=0.5;exitY=0;exitDx=0;exitDy=0;entryX=1;entryY=0.5;entryDx=0;entryDy=0;fontColor=#000000;" parent="1" source="ZGwo3JjX4PuIPy2itPVY-45" target="ZGwo3JjX4PuIPy2itPVY-71" edge="1">
          <mxGeometry width="50" height="50" relative="1" as="geometry">
            <mxPoint x="410" y="285" as="sourcePoint" />
            <mxPoint x="410" y="210" as="targetPoint" />
          </mxGeometry>
        </mxCell>
        <mxCell id="pn9uoVroOdkDR-FOo1zA-3" value="(1,1)" style="text;html=1;strokeColor=none;fillColor=none;align=center;verticalAlign=middle;whiteSpace=wrap;rounded=0;fontStyle=1;fontSize=14;fontColor=#000000;" parent="1" vertex="1">
          <mxGeometry x="60" y="365" width="60" height="30" as="geometry" />
        </mxCell>
        <mxCell id="pn9uoVroOdkDR-FOo1zA-6" value="Có" style="rhombus;whiteSpace=wrap;html=1;fillColor=#dae8fc;strokeColor=#6c8ebf;fontColor=#000000;" parent="1" vertex="1">
          <mxGeometry x="-120" y="125" width="80" height="80" as="geometry" />
        </mxCell>
        <mxCell id="pn9uoVroOdkDR-FOo1zA-9" value="" style="endArrow=none;html=1;rounded=0;exitX=0.5;exitY=0;exitDx=0;exitDy=0;entryX=0.5;entryY=1;entryDx=0;entryDy=0;fontColor=#000000;" parent="1" source="pn9uoVroOdkDR-FOo1zA-6" target="ZGwo3JjX4PuIPy2itPVY-2" edge="1">
          <mxGeometry width="50" height="50" relative="1" as="geometry">
            <mxPoint x="410" y="285" as="sourcePoint" />
            <mxPoint x="380" y="210" as="targetPoint" />
          </mxGeometry>
        </mxCell>
        <mxCell id="pn9uoVroOdkDR-FOo1zA-10" value="(1,1)" style="text;html=1;strokeColor=none;fillColor=none;align=center;verticalAlign=middle;whiteSpace=wrap;rounded=0;fontStyle=1;fontSize=14;fontColor=#000000;" parent="1" vertex="1">
          <mxGeometry x="-250" y="410" width="60" height="30" as="geometry" />
        </mxCell>
        <mxCell id="pn9uoVroOdkDR-FOo1zA-11" value="(0,n)" style="text;html=1;strokeColor=none;fillColor=none;align=center;verticalAlign=middle;whiteSpace=wrap;rounded=0;fontStyle=1;fontSize=14;rotation=0;fontColor=#000000;" parent="1" vertex="1">
          <mxGeometry x="110" y="480" width="60" height="30" as="geometry" />
        </mxCell>
        <mxCell id="pn9uoVroOdkDR-FOo1zA-12" value="" style="endArrow=none;html=1;rounded=0;exitX=0.5;exitY=0;exitDx=0;exitDy=0;entryX=1;entryY=1;entryDx=0;entryDy=0;fontColor=#000000;" parent="1" source="ZGwo3JjX4PuIPy2itPVY-46" target="pn9uoVroOdkDR-FOo1zA-6" edge="1">
          <mxGeometry width="50" height="50" relative="1" as="geometry">
            <mxPoint x="420" y="430" as="sourcePoint" />
            <mxPoint x="410" y="365" as="targetPoint" />
          </mxGeometry>
        </mxCell>
        <mxCell id="pn9uoVroOdkDR-FOo1zA-17" value="Có" style="rhombus;whiteSpace=wrap;html=1;fillColor=#dae8fc;strokeColor=#6c8ebf;fontColor=#000000;" parent="1" vertex="1">
          <mxGeometry x="-120" y="-410" width="80" height="80" as="geometry" />
        </mxCell>
        <mxCell id="pn9uoVroOdkDR-FOo1zA-19" value="Có" style="rhombus;whiteSpace=wrap;html=1;fillColor=#dae8fc;strokeColor=#6c8ebf;fontColor=#000000;" parent="1" vertex="1">
          <mxGeometry x="60" y="-280" width="80" height="80" as="geometry" />
        </mxCell>
        <mxCell id="pn9uoVroOdkDR-FOo1zA-21" value="Có" style="rhombus;whiteSpace=wrap;html=1;fillColor=#dae8fc;strokeColor=#6c8ebf;fontColor=#000000;" parent="1" vertex="1">
          <mxGeometry x="80" y="-80" width="80" height="80" as="geometry" />
        </mxCell>
        <mxCell id="pn9uoVroOdkDR-FOo1zA-24" value="" style="endArrow=none;html=1;rounded=0;exitX=0;exitY=0;exitDx=0;exitDy=0;fontColor=#000000;" parent="1" source="pn9uoVroOdkDR-FOo1zA-21" edge="1">
          <mxGeometry width="50" height="50" relative="1" as="geometry">
            <mxPoint x="660" y="310" as="sourcePoint" />
            <mxPoint x="-130" y="-130" as="targetPoint" />
          </mxGeometry>
        </mxCell>
        <mxCell id="pn9uoVroOdkDR-FOo1zA-25" value="" style="endArrow=none;html=1;rounded=0;entryX=1;entryY=0.5;entryDx=0;entryDy=0;exitX=0;exitY=0.5;exitDx=0;exitDy=0;fontColor=#000000;" parent="1" source="ZGwo3JjX4PuIPy2itPVY-11" target="pn9uoVroOdkDR-FOo1zA-21" edge="1">
          <mxGeometry width="50" height="50" relative="1" as="geometry">
            <mxPoint x="680" y="310" as="sourcePoint" />
            <mxPoint x="500" y="240" as="targetPoint" />
          </mxGeometry>
        </mxCell>
        <mxCell id="pn9uoVroOdkDR-FOo1zA-32" value="" style="endArrow=none;html=1;rounded=0;entryX=0;entryY=1;entryDx=0;entryDy=0;exitX=0.5;exitY=0;exitDx=0;exitDy=0;fontColor=#000000;" parent="1" source="ZGwo3JjX4PuIPy2itPVY-2" target="pn9uoVroOdkDR-FOo1zA-17" edge="1">
          <mxGeometry width="50" height="50" relative="1" as="geometry">
            <mxPoint x="-120" y="-130" as="sourcePoint" />
            <mxPoint x="600" y="130" as="targetPoint" />
          </mxGeometry>
        </mxCell>
        <mxCell id="pn9uoVroOdkDR-FOo1zA-34" value="" style="endArrow=none;html=1;rounded=0;exitX=0.5;exitY=1;exitDx=0;exitDy=0;entryX=1;entryY=0;entryDx=0;entryDy=0;fontColor=#000000;" parent="1" source="ZGwo3JjX4PuIPy2itPVY-9" target="pn9uoVroOdkDR-FOo1zA-17" edge="1">
          <mxGeometry width="50" height="50" relative="1" as="geometry">
            <mxPoint x="450" y="160" as="sourcePoint" />
            <mxPoint x="90" y="-245" as="targetPoint" />
          </mxGeometry>
        </mxCell>
        <mxCell id="pn9uoVroOdkDR-FOo1zA-36" value="" style="endArrow=none;html=1;rounded=0;entryX=0;entryY=0.5;entryDx=0;entryDy=0;exitX=1;exitY=0.5;exitDx=0;exitDy=0;fontColor=#000000;" parent="1" source="pn9uoVroOdkDR-FOo1zA-18" target="ZGwo3JjX4PuIPy2itPVY-10" edge="1">
          <mxGeometry width="50" height="50" relative="1" as="geometry">
            <mxPoint x="470" y="180" as="sourcePoint" />
            <mxPoint x="500" y="-10" as="targetPoint" />
          </mxGeometry>
        </mxCell>
        <mxCell id="pn9uoVroOdkDR-FOo1zA-37" value="" style="endArrow=none;html=1;rounded=0;entryX=0;entryY=0.5;entryDx=0;entryDy=0;exitX=1;exitY=0.5;exitDx=0;exitDy=0;fontColor=#000000;" parent="1" source="ZGwo3JjX4PuIPy2itPVY-2" target="ZGwo3JjX4PuIPy2itPVY-52" edge="1">
          <mxGeometry width="50" height="50" relative="1" as="geometry">
            <mxPoint x="-120" y="-130" as="sourcePoint" />
            <mxPoint x="510" as="targetPoint" />
          </mxGeometry>
        </mxCell>
        <mxCell id="pn9uoVroOdkDR-FOo1zA-38" value="" style="endArrow=none;html=1;rounded=0;entryX=0;entryY=0.5;entryDx=0;entryDy=0;exitX=1;exitY=0.5;exitDx=0;exitDy=0;fontColor=#000000;" parent="1" source="pn9uoVroOdkDR-FOo1zA-19" target="ZGwo3JjX4PuIPy2itPVY-12" edge="1">
          <mxGeometry width="50" height="50" relative="1" as="geometry">
            <mxPoint x="490" y="200" as="sourcePoint" />
            <mxPoint x="520" y="10" as="targetPoint" />
          </mxGeometry>
        </mxCell>
        <mxCell id="pn9uoVroOdkDR-FOo1zA-91" value="Năm" style="ellipse;whiteSpace=wrap;html=1;fillColor=#d5e8d4;strokeColor=#82b366;fontColor=#000000;" parent="1" vertex="1">
          <mxGeometry x="-190" y="-720" width="60" height="80" as="geometry" />
        </mxCell>
        <mxCell id="pn9uoVroOdkDR-FOo1zA-92" value="ID" style="ellipse;whiteSpace=wrap;html=1;fillColor=#d5e8d4;strokeColor=#82b366;fontColor=#000000;" parent="1" vertex="1">
          <mxGeometry x="-260" y="-690" width="60" height="80" as="geometry" />
        </mxCell>
        <mxCell id="pn9uoVroOdkDR-FOo1zA-93" value="Kỳ" style="ellipse;whiteSpace=wrap;html=1;fillColor=#d5e8d4;strokeColor=#82b366;direction=south;fontColor=#000000;" parent="1" vertex="1">
          <mxGeometry x="-120" y="-710" width="80" height="60" as="geometry" />
        </mxCell>
        <mxCell id="pn9uoVroOdkDR-FOo1zA-94" value="Điểm" style="ellipse;whiteSpace=wrap;html=1;fillColor=#d5e8d4;strokeColor=#82b366;fontColor=#000000;" parent="1" vertex="1">
          <mxGeometry x="-70" y="-670" width="60" height="80" as="geometry" />
        </mxCell>
        <mxCell id="pn9uoVroOdkDR-FOo1zA-99" value="ID" style="ellipse;whiteSpace=wrap;html=1;fillColor=#d5e8d4;strokeColor=#82b366;fontColor=#000000;" parent="1" vertex="1">
          <mxGeometry x="20" y="-670" width="60" height="80" as="geometry" />
        </mxCell>
        <mxCell id="pn9uoVroOdkDR-FOo1zA-100" value="Thời gian" style="ellipse;whiteSpace=wrap;html=1;fillColor=#d5e8d4;strokeColor=#82b366;fontColor=#000000;" parent="1" vertex="1">
          <mxGeometry x="170" y="-580" width="60" height="80" as="geometry" />
        </mxCell>
        <mxCell id="pn9uoVroOdkDR-FOo1zA-101" value="Kết Quả" style="ellipse;whiteSpace=wrap;html=1;fillColor=#d5e8d4;strokeColor=#82b366;fontColor=#000000;" parent="1" vertex="1">
          <mxGeometry x="110" y="-630" width="60" height="80" as="geometry" />
        </mxCell>
        <mxCell id="pn9uoVroOdkDR-FOo1zA-106" value="ID" style="ellipse;whiteSpace=wrap;html=1;fillColor=#d5e8d4;strokeColor=#82b366;fontColor=#000000;" parent="1" vertex="1">
          <mxGeometry x="300" y="-530" width="60" height="80" as="geometry" />
        </mxCell>
        <mxCell id="pn9uoVroOdkDR-FOo1zA-107" value="Kết Quả" style="ellipse;whiteSpace=wrap;html=1;fillColor=#d5e8d4;strokeColor=#82b366;fontColor=#000000;" parent="1" vertex="1">
          <mxGeometry x="365" y="-480" width="60" height="80" as="geometry" />
        </mxCell>
        <mxCell id="pn9uoVroOdkDR-FOo1zA-108" value="Thời gian" style="ellipse;whiteSpace=wrap;html=1;fillColor=#d5e8d4;strokeColor=#82b366;fontColor=#000000;" parent="1" vertex="1">
          <mxGeometry x="370" y="-390" width="60" height="80" as="geometry" />
        </mxCell>
        <mxCell id="pn9uoVroOdkDR-FOo1zA-112" value="ID" style="ellipse;whiteSpace=wrap;html=1;fillColor=#d5e8d4;strokeColor=#82b366;fontColor=#000000;" parent="1" vertex="1">
          <mxGeometry x="490" y="-400" width="60" height="80" as="geometry" />
        </mxCell>
        <mxCell id="pn9uoVroOdkDR-FOo1zA-116" value="Lý Do" style="ellipse;whiteSpace=wrap;html=1;fillColor=#d5e8d4;strokeColor=#82b366;fontColor=#000000;" parent="1" vertex="1">
          <mxGeometry x="530" y="-240" width="60" height="80" as="geometry" />
        </mxCell>
        <mxCell id="pn9uoVroOdkDR-FOo1zA-120" value="Người Vắng" style="ellipse;whiteSpace=wrap;html=1;fillColor=#d5e8d4;strokeColor=#82b366;fontColor=#000000;" parent="1" vertex="1">
          <mxGeometry x="520" y="-330" width="60" height="80" as="geometry" />
        </mxCell>
        <mxCell id="pn9uoVroOdkDR-FOo1zA-122" value="ID" style="ellipse;whiteSpace=wrap;html=1;fillColor=#d5e8d4;strokeColor=#82b366;fontColor=#000000;" parent="1" vertex="1">
          <mxGeometry x="680" y="75" width="60" height="80" as="geometry" />
        </mxCell>
        <mxCell id="pn9uoVroOdkDR-FOo1zA-123" value="Niên hạn" style="ellipse;whiteSpace=wrap;html=1;fillColor=#d5e8d4;strokeColor=#82b366;fontColor=#000000;" parent="1" vertex="1">
          <mxGeometry x="640" y="105" width="60" height="80" as="geometry" />
        </mxCell>
        <mxCell id="pn9uoVroOdkDR-FOo1zA-124" value="Sô BH" style="ellipse;whiteSpace=wrap;html=1;fillColor=#d5e8d4;strokeColor=#82b366;fontColor=#000000;" parent="1" vertex="1">
          <mxGeometry x="670" y="-80" width="60" height="80" as="geometry" />
        </mxCell>
        <mxCell id="pn9uoVroOdkDR-FOo1zA-125" value="địa điểm DK" style="ellipse;whiteSpace=wrap;html=1;fillColor=#d5e8d4;strokeColor=#82b366;fontColor=#000000;" parent="1" vertex="1">
          <mxGeometry x="680" width="60" height="80" as="geometry" />
        </mxCell>
        <mxCell id="pn9uoVroOdkDR-FOo1zA-131" value="QN DK" style="ellipse;whiteSpace=wrap;html=1;fillColor=#d5e8d4;strokeColor=#82b366;fontColor=#000000;" parent="1" vertex="1">
          <mxGeometry x="630" y="-160" width="60" height="80" as="geometry" />
        </mxCell>
        <mxCell id="pn9uoVroOdkDR-FOo1zA-133" value="ID" style="ellipse;whiteSpace=wrap;html=1;fillColor=#d5e8d4;strokeColor=#82b366;fontColor=#000000;" parent="1" vertex="1">
          <mxGeometry x="350" y="650" width="60" height="80" as="geometry" />
        </mxCell>
        <mxCell id="pn9uoVroOdkDR-FOo1zA-134" value="Niên hạn" style="ellipse;whiteSpace=wrap;html=1;fillColor=#d5e8d4;strokeColor=#82b366;fontColor=#000000;" parent="1" vertex="1">
          <mxGeometry x="310" y="700" width="60" height="80" as="geometry" />
        </mxCell>
        <mxCell id="pn9uoVroOdkDR-FOo1zA-135" value="Sô BH" style="ellipse;whiteSpace=wrap;html=1;fillColor=#d5e8d4;strokeColor=#82b366;fontColor=#000000;" parent="1" vertex="1">
          <mxGeometry x="250" y="710" width="60" height="80" as="geometry" />
        </mxCell>
        <mxCell id="pn9uoVroOdkDR-FOo1zA-136" value="địa điểm DK" style="ellipse;whiteSpace=wrap;html=1;fillColor=#d5e8d4;strokeColor=#82b366;fontColor=#000000;" parent="1" vertex="1">
          <mxGeometry x="310" y="495" width="60" height="80" as="geometry" />
        </mxCell>
        <mxCell id="pn9uoVroOdkDR-FOo1zA-137" value="NT DK" style="ellipse;whiteSpace=wrap;html=1;fillColor=#d5e8d4;strokeColor=#82b366;fontColor=#000000;" parent="1" vertex="1">
          <mxGeometry x="330" y="580" width="60" height="80" as="geometry" />
        </mxCell>
        <mxCell id="pn9uoVroOdkDR-FOo1zA-143" value="ID" style="ellipse;whiteSpace=wrap;html=1;fillColor=#d5e8d4;strokeColor=#82b366;fontColor=#000000;" parent="1" vertex="1">
          <mxGeometry x="110" y="120" width="60" height="80" as="geometry" />
        </mxCell>
        <mxCell id="pn9uoVroOdkDR-FOo1zA-144" value="Tên" style="ellipse;whiteSpace=wrap;html=1;fillColor=#d5e8d4;strokeColor=#82b366;fontColor=#000000;" parent="1" vertex="1">
          <mxGeometry x="180" y="145" width="60" height="80" as="geometry" />
        </mxCell>
        <mxCell id="pn9uoVroOdkDR-FOo1zA-145" value="NS" style="ellipse;whiteSpace=wrap;html=1;fillColor=#d5e8d4;strokeColor=#82b366;fontColor=#000000;" parent="1" vertex="1">
          <mxGeometry x="190" y="210" width="60" height="80" as="geometry" />
        </mxCell>
        <mxCell id="pn9uoVroOdkDR-FOo1zA-146" value="Nghề" style="ellipse;whiteSpace=wrap;html=1;fillColor=#d5e8d4;strokeColor=#82b366;fontColor=#000000;" parent="1" vertex="1">
          <mxGeometry x="200" y="280" width="60" height="80" as="geometry" />
        </mxCell>
        <mxCell id="pn9uoVroOdkDR-FOo1zA-147" value="Quê Quán" style="ellipse;whiteSpace=wrap;html=1;fillColor=#d5e8d4;strokeColor=#82b366;fontColor=#000000;" parent="1" vertex="1">
          <mxGeometry x="140" y="305" width="60" height="80" as="geometry" />
        </mxCell>
        <mxCell id="pn9uoVroOdkDR-FOo1zA-160" value="ID" style="ellipse;whiteSpace=wrap;html=1;fillColor=#d5e8d4;strokeColor=#82b366;fontColor=#000000;" parent="1" vertex="1">
          <mxGeometry x="540" y="40" width="60" height="80" as="geometry" />
        </mxCell>
        <mxCell id="pn9uoVroOdkDR-FOo1zA-161" value="Tên" style="ellipse;whiteSpace=wrap;html=1;fillColor=#d5e8d4;strokeColor=#82b366;fontColor=#000000;" parent="1" vertex="1">
          <mxGeometry x="510" y="115" width="60" height="80" as="geometry" />
        </mxCell>
        <mxCell id="pn9uoVroOdkDR-FOo1zA-162" value="Kết Quả" style="ellipse;whiteSpace=wrap;html=1;fillColor=#d5e8d4;strokeColor=#82b366;fontColor=#000000;" parent="1" vertex="1">
          <mxGeometry x="440" y="140" width="60" height="80" as="geometry" />
        </mxCell>
        <mxCell id="pn9uoVroOdkDR-FOo1zA-167" value="ID" style="ellipse;whiteSpace=wrap;html=1;fillColor=#d5e8d4;strokeColor=#82b366;fontColor=#000000;" parent="1" vertex="1">
          <mxGeometry x="425" y="340" width="60" height="80" as="geometry" />
        </mxCell>
        <mxCell id="pn9uoVroOdkDR-FOo1zA-168" value="ID" style="ellipse;whiteSpace=wrap;html=1;fillColor=#d5e8d4;strokeColor=#82b366;fontColor=#000000;" parent="1" vertex="1">
          <mxGeometry x="60" y="580" width="60" height="80" as="geometry" />
        </mxCell>
        <mxCell id="pn9uoVroOdkDR-FOo1zA-170" value="tên" style="ellipse;whiteSpace=wrap;html=1;fillColor=#d5e8d4;strokeColor=#82b366;fontColor=#000000;" parent="1" vertex="1">
          <mxGeometry x="-360" y="485" width="60" height="80" as="geometry" />
        </mxCell>
        <mxCell id="pn9uoVroOdkDR-FOo1zA-171" value="ID" style="ellipse;whiteSpace=wrap;html=1;fillColor=#d5e8d4;strokeColor=#82b366;fontColor=#000000;" parent="1" vertex="1">
          <mxGeometry x="-330" y="130" width="60" height="80" as="geometry" />
        </mxCell>
        <mxCell id="pn9uoVroOdkDR-FOo1zA-172" value="ID" style="ellipse;whiteSpace=wrap;html=1;fillColor=#d5e8d4;strokeColor=#82b366;fontColor=#000000;" parent="1" vertex="1">
          <mxGeometry x="-280" y="-360" width="60" height="80" as="geometry" />
        </mxCell>
        <mxCell id="pn9uoVroOdkDR-FOo1zA-183" value="Vp" style="ellipse;whiteSpace=wrap;html=1;fillColor=#d5e8d4;strokeColor=#82b366;fontColor=#000000;" parent="1" vertex="1">
          <mxGeometry x="480" y="305" width="60" height="80" as="geometry" />
        </mxCell>
        <mxCell id="pn9uoVroOdkDR-FOo1zA-184" value="Thời gian" style="ellipse;whiteSpace=wrap;html=1;fillColor=#d5e8d4;strokeColor=#82b366;fontColor=#000000;" parent="1" vertex="1">
          <mxGeometry x="300" y="340" width="60" height="80" as="geometry" />
        </mxCell>
        <mxCell id="pn9uoVroOdkDR-FOo1zA-191" value="HV" style="ellipse;whiteSpace=wrap;html=1;fillColor=#d5e8d4;strokeColor=#82b366;fontColor=#000000;" parent="1" vertex="1">
          <mxGeometry y="600" width="60" height="80" as="geometry" />
        </mxCell>
        <mxCell id="pn9uoVroOdkDR-FOo1zA-192" value="Khen Thưởng" style="ellipse;whiteSpace=wrap;html=1;fillColor=#d5e8d4;strokeColor=#82b366;fontColor=#000000;" parent="1" vertex="1">
          <mxGeometry x="-130" y="580" width="60" height="80" as="geometry" />
        </mxCell>
        <mxCell id="pn9uoVroOdkDR-FOo1zA-193" value="thời Gian" style="ellipse;whiteSpace=wrap;html=1;fillColor=#d5e8d4;strokeColor=#82b366;fontColor=#000000;" parent="1" vertex="1">
          <mxGeometry x="-60" y="590" width="60" height="80" as="geometry" />
        </mxCell>
        <mxCell id="pn9uoVroOdkDR-FOo1zA-200" value="ID" style="ellipse;whiteSpace=wrap;html=1;fillColor=#d5e8d4;strokeColor=#82b366;fontColor=#000000;" parent="1" vertex="1">
          <mxGeometry x="-350" y="390" width="60" height="80" as="geometry" />
        </mxCell>
        <mxCell id="pn9uoVroOdkDR-FOo1zA-207" value="Chuyên ngành" style="ellipse;whiteSpace=wrap;html=1;fillColor=#d5e8d4;strokeColor=#82b366;fontColor=#000000;" parent="1" vertex="1">
          <mxGeometry x="-340" y="240" width="60" height="80" as="geometry" />
        </mxCell>
        <mxCell id="pn9uoVroOdkDR-FOo1zA-209" value="Quê Quán" style="ellipse;whiteSpace=wrap;html=1;fillColor=#d5e8d4;strokeColor=#82b366;fontColor=#000000;" parent="1" vertex="1">
          <mxGeometry x="-420" y="-240" width="60" height="80" as="geometry" />
        </mxCell>
        <mxCell id="pn9uoVroOdkDR-FOo1zA-210" value="NS" style="ellipse;whiteSpace=wrap;html=1;fillColor=#d5e8d4;strokeColor=#82b366;fontColor=#000000;" parent="1" vertex="1">
          <mxGeometry x="-425" y="-310" width="70" height="80" as="geometry" />
        </mxCell>
        <mxCell id="pn9uoVroOdkDR-FOo1zA-211" value="Tên" style="ellipse;whiteSpace=wrap;html=1;fillColor=#d5e8d4;strokeColor=#82b366;fontColor=#000000;" parent="1" vertex="1">
          <mxGeometry x="-360" y="-350" width="60" height="80" as="geometry" />
        </mxCell>
        <mxCell id="pn9uoVroOdkDR-FOo1zA-212" value="Chức Vụ" style="ellipse;whiteSpace=wrap;html=1;fillColor=#d5e8d4;strokeColor=#82b366;fontColor=#000000;" parent="1" vertex="1">
          <mxGeometry x="-425" y="-180" width="60" height="80" as="geometry" />
        </mxCell>
        <mxCell id="Y8wADBtAHxZ81B8i85IY-5" value="" style="endArrow=none;html=1;rounded=0;exitX=0.5;exitY=0;exitDx=0;exitDy=0;entryX=0;entryY=1;entryDx=0;entryDy=0;fontColor=#000000;" parent="1" source="ZGwo3JjX4PuIPy2itPVY-2" target="pn9uoVroOdkDR-FOo1zA-18" edge="1">
          <mxGeometry width="50" height="50" relative="1" as="geometry">
            <mxPoint x="-150" y="-160" as="sourcePoint" />
            <mxPoint x="770" y="30" as="targetPoint" />
            <Array as="points">
              <mxPoint x="-190" y="-160" />
            </Array>
          </mxGeometry>
        </mxCell>
        <mxCell id="pn9uoVroOdkDR-FOo1zA-18" value="Có" style="rhombus;whiteSpace=wrap;html=1;fillColor=#dae8fc;strokeColor=#6c8ebf;fontColor=#000000;" parent="1" vertex="1">
          <mxGeometry x="-30" y="-360" width="80" height="80" as="geometry" />
        </mxCell>
        <mxCell id="Y8wADBtAHxZ81B8i85IY-8" value="" style="endArrow=none;html=1;rounded=0;entryX=1;entryY=0.5;entryDx=0;entryDy=0;exitX=0;exitY=0.5;exitDx=0;exitDy=0;fontColor=#000000;" parent="1" source="ZGwo3JjX4PuIPy2itPVY-13" target="ZGwo3JjX4PuIPy2itPVY-52" edge="1">
          <mxGeometry width="50" height="50" relative="1" as="geometry">
            <mxPoint x="970" as="sourcePoint" />
            <mxPoint x="130" y="105" as="targetPoint" />
          </mxGeometry>
        </mxCell>
        <mxCell id="pn9uoVroOdkDR-FOo1zA-113" value="Thời gian" style="ellipse;whiteSpace=wrap;html=1;fillColor=#d5e8d4;strokeColor=#82b366;fontColor=#000000;" parent="1" vertex="1">
          <mxGeometry x="490" y="-160" width="60" height="80" as="geometry" />
        </mxCell>
        <mxCell id="Y8wADBtAHxZ81B8i85IY-11" value="" style="endArrow=none;html=1;rounded=0;entryX=0;entryY=0.5;entryDx=0;entryDy=0;exitX=1;exitY=0.5;exitDx=0;exitDy=0;fontColor=#000000;" parent="1" source="ZGwo3JjX4PuIPy2itPVY-2" target="pn9uoVroOdkDR-FOo1zA-19" edge="1">
          <mxGeometry width="50" height="50" relative="1" as="geometry">
            <mxPoint x="-120" y="-120" as="sourcePoint" />
            <mxPoint x="80" y="-120" as="targetPoint" />
          </mxGeometry>
        </mxCell>
        <mxCell id="pn9uoVroOdkDR-FOo1zA-182" value="HVVP" style="ellipse;whiteSpace=wrap;html=1;fillColor=#d5e8d4;strokeColor=#82b366;fontColor=#000000;" parent="1" vertex="1">
          <mxGeometry x="365" y="360" width="60" height="80" as="geometry" />
        </mxCell>
        <mxCell id="Y8wADBtAHxZ81B8i85IY-22" value="Đảng" style="ellipse;whiteSpace=wrap;html=1;fillColor=#d5e8d4;strokeColor=#82b366;fontColor=#000000;" parent="1" vertex="1">
          <mxGeometry x="-425" y="-100" width="60" height="80" as="geometry" />
        </mxCell>
        <mxCell id="Y8wADBtAHxZ81B8i85IY-23" value="Quân Hàm" style="ellipse;whiteSpace=wrap;html=1;fillColor=#d5e8d4;strokeColor=#82b366;fontColor=#000000;" parent="1" vertex="1">
          <mxGeometry x="-370" y="-55" width="60" height="80" as="geometry" />
        </mxCell>
        <mxCell id="Y8wADBtAHxZ81B8i85IY-27" value="(1,n)" style="text;html=1;strokeColor=none;fillColor=none;align=center;verticalAlign=middle;whiteSpace=wrap;rounded=0;fontStyle=1;fontSize=14;fontColor=#000000;" parent="1" vertex="1">
          <mxGeometry x="-250" y="-10" width="60" height="30" as="geometry" />
        </mxCell>
        <mxCell id="Y8wADBtAHxZ81B8i85IY-28" value="(0,n)" style="text;html=1;strokeColor=none;fillColor=none;align=center;verticalAlign=middle;whiteSpace=wrap;rounded=0;fontStyle=1;fontSize=14;rotation=0;fontColor=#000000;" parent="1" vertex="1">
          <mxGeometry x="-110" y="220" width="60" height="30" as="geometry" />
        </mxCell>
        <mxCell id="Y8wADBtAHxZ81B8i85IY-29" value="(1,1)" style="text;html=1;strokeColor=none;fillColor=none;align=center;verticalAlign=middle;whiteSpace=wrap;rounded=0;fontStyle=1;fontSize=14;fontColor=#000000;" parent="1" vertex="1">
          <mxGeometry x="-150" y="105" width="60" height="30" as="geometry" />
        </mxCell>
        <mxCell id="Y8wADBtAHxZ81B8i85IY-33" value="(1,n)" style="text;html=1;strokeColor=none;fillColor=none;align=center;verticalAlign=middle;whiteSpace=wrap;rounded=0;glass=0;fontStyle=1;fontSize=14;fontColor=#000000;" parent="1" vertex="1">
          <mxGeometry x="-30" y="25" width="60" height="30" as="geometry" />
        </mxCell>
        <mxCell id="Y8wADBtAHxZ81B8i85IY-34" value="(1,n)" style="text;html=1;strokeColor=none;fillColor=none;align=center;verticalAlign=middle;whiteSpace=wrap;rounded=0;glass=0;fontStyle=1;fontSize=14;fontColor=#000000;" parent="1" vertex="1">
          <mxGeometry x="40" y="115" width="60" height="30" as="geometry" />
        </mxCell>
        <mxCell id="Y8wADBtAHxZ81B8i85IY-36" value="(1,1)" style="text;html=1;strokeColor=none;fillColor=none;align=center;verticalAlign=middle;whiteSpace=wrap;rounded=0;glass=0;fontStyle=1;fontSize=14;fontColor=#000000;" parent="1" vertex="1">
          <mxGeometry x="70" y="35" width="60" height="30" as="geometry" />
        </mxCell>
        <mxCell id="Y8wADBtAHxZ81B8i85IY-38" value="(1,n)" style="text;html=1;strokeColor=none;fillColor=none;align=center;verticalAlign=middle;whiteSpace=wrap;rounded=0;glass=0;fontStyle=1;fontSize=14;fontColor=#000000;" parent="1" vertex="1">
          <mxGeometry x="130" y="-20" width="60" height="30" as="geometry" />
        </mxCell>
        <mxCell id="Y8wADBtAHxZ81B8i85IY-39" value="(1,n)" style="text;html=1;strokeColor=none;fillColor=none;align=center;verticalAlign=middle;whiteSpace=wrap;rounded=0;glass=0;fontStyle=1;fontSize=14;fontColor=#000000;" parent="1" vertex="1">
          <mxGeometry x="150" y="-160" width="60" height="30" as="geometry" />
        </mxCell>
        <mxCell id="Y8wADBtAHxZ81B8i85IY-40" value="(1,n)" style="text;html=1;strokeColor=none;fillColor=none;align=center;verticalAlign=middle;whiteSpace=wrap;rounded=0;glass=0;fontStyle=1;fontSize=14;fontColor=#000000;" parent="1" vertex="1">
          <mxGeometry x="-90" y="-450" width="60" height="30" as="geometry" />
        </mxCell>
        <mxCell id="Y8wADBtAHxZ81B8i85IY-41" value="(1,n)" style="text;html=1;strokeColor=none;fillColor=none;align=center;verticalAlign=middle;whiteSpace=wrap;rounded=0;glass=0;fontStyle=1;fontSize=14;fontColor=#000000;" parent="1" vertex="1">
          <mxGeometry x="-240" y="-455" width="60" height="30" as="geometry" />
        </mxCell>
        <mxCell id="Y8wADBtAHxZ81B8i85IY-42" value="(1,1)" style="text;html=1;strokeColor=none;fillColor=none;align=center;verticalAlign=middle;whiteSpace=wrap;rounded=0;glass=0;fontStyle=1;fontSize=14;fontColor=#000000;" parent="1" vertex="1">
          <mxGeometry y="-255" width="60" height="30" as="geometry" />
        </mxCell>
        <mxCell id="Y8wADBtAHxZ81B8i85IY-43" value="(1,1)" style="text;html=1;strokeColor=none;fillColor=none;align=center;verticalAlign=middle;whiteSpace=wrap;rounded=0;glass=0;fontStyle=1;fontSize=14;fontColor=#000000;" parent="1" vertex="1">
          <mxGeometry x="-80" y="-315" width="60" height="30" as="geometry" />
        </mxCell>
        <mxCell id="Y8wADBtAHxZ81B8i85IY-45" value="(1,1)" style="text;html=1;strokeColor=none;fillColor=none;align=center;verticalAlign=middle;whiteSpace=wrap;rounded=0;glass=0;fontStyle=1;fontSize=14;fontColor=#000000;" parent="1" vertex="1">
          <mxGeometry x="-160" y="-350" width="60" height="30" as="geometry" />
        </mxCell>
        <mxCell id="Y8wADBtAHxZ81B8i85IY-46" value="(1,1)" style="text;html=1;strokeColor=none;fillColor=none;align=center;verticalAlign=middle;whiteSpace=wrap;rounded=0;glass=0;fontStyle=1;fontSize=14;fontColor=#000000;" parent="1" vertex="1">
          <mxGeometry x="-250" y="-360" width="60" height="30" as="geometry" />
        </mxCell>
      </root>
    </mxGraphModel>
  </diagram>
</mxfile>
